ISO-10303-21;
HEADER;
FILE_DESCRIPTION(('FreeCAD Model'),'2;1');
FILE_NAME('Open CASCADE Shape Model','2026-06-01T14:08:38',(''),(''),
  'Open CASCADE STEP processor 7.8','FreeCAD','Unknown');
FILE_SCHEMA(('AUTOMOTIVE_DESIGN { 1 0 10303 214 1 1 1 1 }'));
ENDSEC;
DATA;
#1 = APPLICATION_PROTOCOL_DEFINITION('international standard',
  'automotive_design',2000,#2);
#2 = APPLICATION_CONTEXT(
  'core data for automotive mechanical design processes');
#3 = SHAPE_DEFINITION_REPRESENTATION(#4,#10);
#4 = PRODUCT_DEFINITION_SHAPE('','',#5);
#5 = PRODUCT_DEFINITION('design','',#6,#9);
#6 = PRODUCT_DEFINITION_FORMATION('','',#7);
#7 = PRODUCT('Body','Body','',(#8));
#8 = PRODUCT_CONTEXT('',#2,'mechanical');
#9 = PRODUCT_DEFINITION_CONTEXT('part definition',#2,'design');
#10 = SHAPE_REPRESENTATION('',(#11,#15,#321,#627,#933),#1239);
#11 = AXIS2_PLACEMENT_3D('',#12,#13,#14);
#12 = CARTESIAN_POINT('',(0.,0.,0.));
#13 = DIRECTION('',(0.,0.,1.));
#14 = DIRECTION('',(1.,0.,-0.));
#15 = MANIFOLD_SOLID_BREP('',#16);
#16 = CLOSED_SHELL('',(#17,#50,#109,#118,#149,#173,#197,#221,#245,#262,
    #287,#312));
#17 = ADVANCED_FACE('',(#18),#45,.T.);
#18 = FACE_BOUND('',#19,.F.);
#19 = EDGE_LOOP('',(#20,#30,#37,#38));
#20 = ORIENTED_EDGE('',*,*,#21,.T.);
#21 = EDGE_CURVE('',#22,#24,#26,.T.);
#22 = VERTEX_POINT('',#23);
#23 = CARTESIAN_POINT('',(0.55,8.,0.));
#24 = VERTEX_POINT('',#25);
#25 = CARTESIAN_POINT('',(0.55,8.,34.));
#26 = LINE('',#27,#28);
#27 = CARTESIAN_POINT('',(0.55,8.,0.));
#28 = VECTOR('',#29,1.);
#29 = DIRECTION('',(0.,0.,1.));
#30 = ORIENTED_EDGE('',*,*,#31,.T.);
#31 = EDGE_CURVE('',#24,#24,#32,.T.);
#32 = CIRCLE('',#33,2.55);
#33 = AXIS2_PLACEMENT_3D('',#34,#35,#36);
#34 = CARTESIAN_POINT('',(-2.,8.,34.));
#35 = DIRECTION('',(0.,0.,1.));
#36 = DIRECTION('',(1.,0.,0.));
#37 = ORIENTED_EDGE('',*,*,#21,.F.);
#38 = ORIENTED_EDGE('',*,*,#39,.F.);
#39 = EDGE_CURVE('',#22,#22,#40,.T.);
#40 = CIRCLE('',#41,2.55);
#41 = AXIS2_PLACEMENT_3D('',#42,#43,#44);
#42 = CARTESIAN_POINT('',(-2.,8.,0.));
#43 = DIRECTION('',(0.,0.,1.));
#44 = DIRECTION('',(1.,0.,0.));
#45 = CYLINDRICAL_SURFACE('',#46,2.55);
#46 = AXIS2_PLACEMENT_3D('',#47,#48,#49);
#47 = CARTESIAN_POINT('',(-2.,8.,0.));
#48 = DIRECTION('',(-0.,-0.,-1.));
#49 = DIRECTION('',(1.,0.,0.));
#50 = ADVANCED_FACE('',(#51,#101),#104,.T.);
#51 = FACE_BOUND('',#52,.T.);
#52 = EDGE_LOOP('',(#53,#63,#71,#79,#87,#95));
#53 = ORIENTED_EDGE('',*,*,#54,.T.);
#54 = EDGE_CURVE('',#55,#57,#59,.T.);
#55 = VERTEX_POINT('',#56);
#56 = CARTESIAN_POINT('',(-3.750000000072,4.968911086796,0.));
#57 = VERTEX_POINT('',#58);
#58 = CARTESIAN_POINT('',(-0.250000000072,4.968911086713,0.));
#59 = LINE('',#60,#61);
#60 = CARTESIAN_POINT('',(-3.750000000072,4.968911086796,0.));
#61 = VECTOR('',#62,1.);
#62 = DIRECTION('',(1.,-2.370091E-11,0.));
#63 = ORIENTED_EDGE('',*,*,#64,.T.);
#64 = EDGE_CURVE('',#57,#65,#67,.T.);
#65 = VERTEX_POINT('',#66);
#66 = CARTESIAN_POINT('',(1.5,8.,0.));
#67 = LINE('',#68,#69);
#68 = CARTESIAN_POINT('',(-0.250000000072,4.968911086713,0.));
#69 = VECTOR('',#70,1.);
#70 = DIRECTION('',(0.50000000001,0.866025403779,0.));
#71 = ORIENTED_EDGE('',*,*,#72,.T.);
#72 = EDGE_CURVE('',#65,#73,#75,.T.);
#73 = VERTEX_POINT('',#74);
#74 = CARTESIAN_POINT('',(-0.25,11.031088913246,0.));
#75 = LINE('',#76,#77);
#76 = CARTESIAN_POINT('',(1.5,8.,0.));
#77 = VECTOR('',#78,1.);
#78 = DIRECTION('',(-0.5,0.866025403784,0.));
#79 = ORIENTED_EDGE('',*,*,#80,.T.);
#80 = EDGE_CURVE('',#73,#81,#83,.T.);
#81 = VERTEX_POINT('',#82);
#82 = CARTESIAN_POINT('',(-3.75,11.031088913246,0.));
#83 = LINE('',#84,#85);
#84 = CARTESIAN_POINT('',(-0.25,11.031088913246,0.));
#85 = VECTOR('',#86,1.);
#86 = DIRECTION('',(-1.,0.,0.));
#87 = ORIENTED_EDGE('',*,*,#88,.T.);
#88 = EDGE_CURVE('',#81,#89,#91,.T.);
#89 = VERTEX_POINT('',#90);
#90 = CARTESIAN_POINT('',(-5.5,8.,0.));
#91 = LINE('',#92,#93);
#92 = CARTESIAN_POINT('',(-3.75,11.031088913246,0.));
#93 = VECTOR('',#94,1.);
#94 = DIRECTION('',(-0.5,-0.866025403784,0.));
#95 = ORIENTED_EDGE('',*,*,#96,.T.);
#96 = EDGE_CURVE('',#89,#55,#97,.T.);
#97 = LINE('',#98,#99);
#98 = CARTESIAN_POINT('',(-5.5,8.,0.));
#99 = VECTOR('',#100,1.);
#100 = DIRECTION('',(0.49999999999,-0.86602540379,0.));
#101 = FACE_BOUND('',#102,.F.);
#102 = EDGE_LOOP('',(#103));
#103 = ORIENTED_EDGE('',*,*,#39,.T.);
#104 = PLANE('',#105);
#105 = AXIS2_PLACEMENT_3D('',#106,#107,#108);
#106 = CARTESIAN_POINT('',(5.999999999996,8.E-16,0.));
#107 = DIRECTION('',(0.,0.,1.));
#108 = DIRECTION('',(1.,0.,0.));
#109 = ADVANCED_FACE('',(#110),#113,.T.);
#110 = FACE_BOUND('',#111,.T.);
#111 = EDGE_LOOP('',(#112));
#112 = ORIENTED_EDGE('',*,*,#31,.T.);
#113 = PLANE('',#114);
#114 = AXIS2_PLACEMENT_3D('',#115,#116,#117);
#115 = CARTESIAN_POINT('',(6.,1.01E-15,34.));
#116 = DIRECTION('',(0.,0.,1.));
#117 = DIRECTION('',(1.,0.,0.));
#118 = ADVANCED_FACE('',(#119),#144,.T.);
#119 = FACE_BOUND('',#120,.T.);
#120 = EDGE_LOOP('',(#121,#129,#137,#143));
#121 = ORIENTED_EDGE('',*,*,#122,.T.);
#122 = EDGE_CURVE('',#55,#123,#125,.T.);
#123 = VERTEX_POINT('',#124);
#124 = CARTESIAN_POINT('',(-3.750000000072,4.968911086796,-3.));
#125 = LINE('',#126,#127);
#126 = CARTESIAN_POINT('',(-3.750000000072,4.968911086796,0.));
#127 = VECTOR('',#128,1.);
#128 = DIRECTION('',(-0.,-0.,-1.));
#129 = ORIENTED_EDGE('',*,*,#130,.T.);
#130 = EDGE_CURVE('',#123,#131,#133,.T.);
#131 = VERTEX_POINT('',#132);
#132 = CARTESIAN_POINT('',(-0.250000000072,4.968911086713,-3.));
#133 = LINE('',#134,#135);
#134 = CARTESIAN_POINT('',(-3.750000000072,4.968911086796,-3.));
#135 = VECTOR('',#136,1.);
#136 = DIRECTION('',(1.,-2.370091E-11,0.));
#137 = ORIENTED_EDGE('',*,*,#138,.F.);
#138 = EDGE_CURVE('',#57,#131,#139,.T.);
#139 = LINE('',#140,#141);
#140 = CARTESIAN_POINT('',(-0.250000000072,4.968911086713,0.));
#141 = VECTOR('',#142,1.);
#142 = DIRECTION('',(-0.,-0.,-1.));
#143 = ORIENTED_EDGE('',*,*,#54,.F.);
#144 = PLANE('',#145);
#145 = AXIS2_PLACEMENT_3D('',#146,#147,#148);
#146 = CARTESIAN_POINT('',(-3.750000000072,4.968911086796,0.));
#147 = DIRECTION('',(-2.370091E-11,-1.,0.));
#148 = DIRECTION('',(1.,-2.370091E-11,0.));
#149 = ADVANCED_FACE('',(#150),#168,.T.);
#150 = FACE_BOUND('',#151,.T.);
#151 = EDGE_LOOP('',(#152,#153,#161,#167));
#152 = ORIENTED_EDGE('',*,*,#138,.T.);
#153 = ORIENTED_EDGE('',*,*,#154,.T.);
#154 = EDGE_CURVE('',#131,#155,#157,.T.);
#155 = VERTEX_POINT('',#156);
#156 = CARTESIAN_POINT('',(1.5,8.,-3.));
#157 = LINE('',#158,#159);
#158 = CARTESIAN_POINT('',(-0.250000000072,4.968911086713,-3.));
#159 = VECTOR('',#160,1.);
#160 = DIRECTION('',(0.50000000001,0.866025403779,0.));
#161 = ORIENTED_EDGE('',*,*,#162,.F.);
#162 = EDGE_CURVE('',#65,#155,#163,.T.);
#163 = LINE('',#164,#165);
#164 = CARTESIAN_POINT('',(1.5,8.,0.));
#165 = VECTOR('',#166,1.);
#166 = DIRECTION('',(-0.,-0.,-1.));
#167 = ORIENTED_EDGE('',*,*,#64,.F.);
#168 = PLANE('',#169);
#169 = AXIS2_PLACEMENT_3D('',#170,#171,#172);
#170 = CARTESIAN_POINT('',(-0.250000000072,4.968911086713,0.));
#171 = DIRECTION('',(0.866025403779,-0.50000000001,0.));
#172 = DIRECTION('',(0.50000000001,0.866025403779,0.));
#173 = ADVANCED_FACE('',(#174),#192,.T.);
#174 = FACE_BOUND('',#175,.T.);
#175 = EDGE_LOOP('',(#176,#177,#185,#191));
#176 = ORIENTED_EDGE('',*,*,#162,.T.);
#177 = ORIENTED_EDGE('',*,*,#178,.T.);
#178 = EDGE_CURVE('',#155,#179,#181,.T.);
#179 = VERTEX_POINT('',#180);
#180 = CARTESIAN_POINT('',(-0.25,11.031088913246,-3.));
#181 = LINE('',#182,#183);
#182 = CARTESIAN_POINT('',(1.5,8.,-3.));
#183 = VECTOR('',#184,1.);
#184 = DIRECTION('',(-0.5,0.866025403784,0.));
#185 = ORIENTED_EDGE('',*,*,#186,.F.);
#186 = EDGE_CURVE('',#73,#179,#187,.T.);
#187 = LINE('',#188,#189);
#188 = CARTESIAN_POINT('',(-0.25,11.031088913246,0.));
#189 = VECTOR('',#190,1.);
#190 = DIRECTION('',(-0.,-0.,-1.));
#191 = ORIENTED_EDGE('',*,*,#72,.F.);
#192 = PLANE('',#193);
#193 = AXIS2_PLACEMENT_3D('',#194,#195,#196);
#194 = CARTESIAN_POINT('',(1.5,8.,0.));
#195 = DIRECTION('',(0.866025403784,0.5,0.));
#196 = DIRECTION('',(-0.5,0.866025403784,0.));
#197 = ADVANCED_FACE('',(#198),#216,.T.);
#198 = FACE_BOUND('',#199,.T.);
#199 = EDGE_LOOP('',(#200,#201,#209,#215));
#200 = ORIENTED_EDGE('',*,*,#186,.T.);
#201 = ORIENTED_EDGE('',*,*,#202,.T.);
#202 = EDGE_CURVE('',#179,#203,#205,.T.);
#203 = VERTEX_POINT('',#204);
#204 = CARTESIAN_POINT('',(-3.75,11.031088913246,-3.));
#205 = LINE('',#206,#207);
#206 = CARTESIAN_POINT('',(-0.25,11.031088913246,-3.));
#207 = VECTOR('',#208,1.);
#208 = DIRECTION('',(-1.,0.,0.));
#209 = ORIENTED_EDGE('',*,*,#210,.F.);
#210 = EDGE_CURVE('',#81,#203,#211,.T.);
#211 = LINE('',#212,#213);
#212 = CARTESIAN_POINT('',(-3.75,11.031088913246,0.));
#213 = VECTOR('',#214,1.);
#214 = DIRECTION('',(-0.,-0.,-1.));
#215 = ORIENTED_EDGE('',*,*,#80,.F.);
#216 = PLANE('',#217);
#217 = AXIS2_PLACEMENT_3D('',#218,#219,#220);
#218 = CARTESIAN_POINT('',(-0.25,11.031088913246,0.));
#219 = DIRECTION('',(0.,1.,0.));
#220 = DIRECTION('',(-1.,0.,0.));
#221 = ADVANCED_FACE('',(#222),#240,.T.);
#222 = FACE_BOUND('',#223,.T.);
#223 = EDGE_LOOP('',(#224,#225,#233,#239));
#224 = ORIENTED_EDGE('',*,*,#210,.T.);
#225 = ORIENTED_EDGE('',*,*,#226,.T.);
#226 = EDGE_CURVE('',#203,#227,#229,.T.);
#227 = VERTEX_POINT('',#228);
#228 = CARTESIAN_POINT('',(-5.5,8.,-3.));
#229 = LINE('',#230,#231);
#230 = CARTESIAN_POINT('',(-3.75,11.031088913246,-3.));
#231 = VECTOR('',#232,1.);
#232 = DIRECTION('',(-0.5,-0.866025403784,0.));
#233 = ORIENTED_EDGE('',*,*,#234,.F.);
#234 = EDGE_CURVE('',#89,#227,#235,.T.);
#235 = LINE('',#236,#237);
#236 = CARTESIAN_POINT('',(-5.5,8.,0.));
#237 = VECTOR('',#238,1.);
#238 = DIRECTION('',(-0.,-0.,-1.));
#239 = ORIENTED_EDGE('',*,*,#88,.F.);
#240 = PLANE('',#241);
#241 = AXIS2_PLACEMENT_3D('',#242,#243,#244);
#242 = CARTESIAN_POINT('',(-3.75,11.031088913246,0.));
#243 = DIRECTION('',(-0.866025403784,0.5,0.));
#244 = DIRECTION('',(-0.5,-0.866025403784,0.));
#245 = ADVANCED_FACE('',(#246),#257,.T.);
#246 = FACE_BOUND('',#247,.T.);
#247 = EDGE_LOOP('',(#248,#249,#255,#256));
#248 = ORIENTED_EDGE('',*,*,#234,.T.);
#249 = ORIENTED_EDGE('',*,*,#250,.T.);
#250 = EDGE_CURVE('',#227,#123,#251,.T.);
#251 = LINE('',#252,#253);
#252 = CARTESIAN_POINT('',(-5.5,8.,-3.));
#253 = VECTOR('',#254,1.);
#254 = DIRECTION('',(0.49999999999,-0.86602540379,0.));
#255 = ORIENTED_EDGE('',*,*,#122,.F.);
#256 = ORIENTED_EDGE('',*,*,#96,.F.);
#257 = PLANE('',#258);
#258 = AXIS2_PLACEMENT_3D('',#259,#260,#261);
#259 = CARTESIAN_POINT('',(-5.5,8.,0.));
#260 = DIRECTION('',(-0.86602540379,-0.49999999999,0.));
#261 = DIRECTION('',(0.49999999999,-0.86602540379,0.));
#262 = ADVANCED_FACE('',(#263,#271),#282,.F.);
#263 = FACE_BOUND('',#264,.F.);
#264 = EDGE_LOOP('',(#265,#266,#267,#268,#269,#270));
#265 = ORIENTED_EDGE('',*,*,#130,.T.);
#266 = ORIENTED_EDGE('',*,*,#154,.T.);
#267 = ORIENTED_EDGE('',*,*,#178,.T.);
#268 = ORIENTED_EDGE('',*,*,#202,.T.);
#269 = ORIENTED_EDGE('',*,*,#226,.T.);
#270 = ORIENTED_EDGE('',*,*,#250,.T.);
#271 = FACE_BOUND('',#272,.T.);
#272 = EDGE_LOOP('',(#273));
#273 = ORIENTED_EDGE('',*,*,#274,.T.);
#274 = EDGE_CURVE('',#275,#275,#277,.T.);
#275 = VERTEX_POINT('',#276);
#276 = CARTESIAN_POINT('',(0.55,8.,-3.));
#277 = CIRCLE('',#278,2.55);
#278 = AXIS2_PLACEMENT_3D('',#279,#280,#281);
#279 = CARTESIAN_POINT('',(-2.,8.,-3.));
#280 = DIRECTION('',(0.,0.,1.));
#281 = DIRECTION('',(1.,0.,0.));
#282 = PLANE('',#283);
#283 = AXIS2_PLACEMENT_3D('',#284,#285,#286);
#284 = CARTESIAN_POINT('',(5.999999999996,8.E-16,-3.));
#285 = DIRECTION('',(0.,0.,1.));
#286 = DIRECTION('',(1.,0.,0.));
#287 = ADVANCED_FACE('',(#288),#307,.F.);
#288 = FACE_BOUND('',#289,.F.);
#289 = EDGE_LOOP('',(#290,#299,#305,#306));
#290 = ORIENTED_EDGE('',*,*,#291,.F.);
#291 = EDGE_CURVE('',#292,#292,#294,.T.);
#292 = VERTEX_POINT('',#293);
#293 = CARTESIAN_POINT('',(0.55,8.,-2.5));
#294 = CIRCLE('',#295,2.55);
#295 = AXIS2_PLACEMENT_3D('',#296,#297,#298);
#296 = CARTESIAN_POINT('',(-2.,8.,-2.5));
#297 = DIRECTION('',(0.,0.,1.));
#298 = DIRECTION('',(1.,0.,0.));
#299 = ORIENTED_EDGE('',*,*,#300,.T.);
#300 = EDGE_CURVE('',#292,#275,#301,.T.);
#301 = LINE('',#302,#303);
#302 = CARTESIAN_POINT('',(0.55,8.,0.));
#303 = VECTOR('',#304,1.);
#304 = DIRECTION('',(-0.,-0.,-1.));
#305 = ORIENTED_EDGE('',*,*,#274,.T.);
#306 = ORIENTED_EDGE('',*,*,#300,.F.);
#307 = CYLINDRICAL_SURFACE('',#308,2.55);
#308 = AXIS2_PLACEMENT_3D('',#309,#310,#311);
#309 = CARTESIAN_POINT('',(-2.,8.,0.));
#310 = DIRECTION('',(0.,0.,1.));
#311 = DIRECTION('',(1.,0.,0.));
#312 = ADVANCED_FACE('',(#313),#316,.F.);
#313 = FACE_BOUND('',#314,.F.);
#314 = EDGE_LOOP('',(#315));
#315 = ORIENTED_EDGE('',*,*,#291,.T.);
#316 = PLANE('',#317);
#317 = AXIS2_PLACEMENT_3D('',#318,#319,#320);
#318 = CARTESIAN_POINT('',(6.,1.04E-15,-2.5));
#319 = DIRECTION('',(0.,0.,1.));
#320 = DIRECTION('',(1.,0.,0.));
#321 = MANIFOLD_SOLID_BREP('',#322);
#322 = CLOSED_SHELL('',(#323,#356,#415,#424,#455,#479,#503,#527,#551,
    #568,#593,#618));
#323 = ADVANCED_FACE('',(#324),#351,.T.);
#324 = FACE_BOUND('',#325,.F.);
#325 = EDGE_LOOP('',(#326,#336,#343,#344));
#326 = ORIENTED_EDGE('',*,*,#327,.T.);
#327 = EDGE_CURVE('',#328,#330,#332,.T.);
#328 = VERTEX_POINT('',#329);
#329 = CARTESIAN_POINT('',(16.55,8.,0.));
#330 = VERTEX_POINT('',#331);
#331 = CARTESIAN_POINT('',(16.55,8.,34.));
#332 = LINE('',#333,#334);
#333 = CARTESIAN_POINT('',(16.55,8.,0.));
#334 = VECTOR('',#335,1.);
#335 = DIRECTION('',(0.,0.,1.));
#336 = ORIENTED_EDGE('',*,*,#337,.T.);
#337 = EDGE_CURVE('',#330,#330,#338,.T.);
#338 = CIRCLE('',#339,2.55);
#339 = AXIS2_PLACEMENT_3D('',#340,#341,#342);
#340 = CARTESIAN_POINT('',(14.,8.,34.));
#341 = DIRECTION('',(0.,0.,1.));
#342 = DIRECTION('',(1.,0.,0.));
#343 = ORIENTED_EDGE('',*,*,#327,.F.);
#344 = ORIENTED_EDGE('',*,*,#345,.F.);
#345 = EDGE_CURVE('',#328,#328,#346,.T.);
#346 = CIRCLE('',#347,2.55);
#347 = AXIS2_PLACEMENT_3D('',#348,#349,#350);
#348 = CARTESIAN_POINT('',(14.,8.,0.));
#349 = DIRECTION('',(0.,0.,1.));
#350 = DIRECTION('',(1.,0.,0.));
#351 = CYLINDRICAL_SURFACE('',#352,2.55);
#352 = AXIS2_PLACEMENT_3D('',#353,#354,#355);
#353 = CARTESIAN_POINT('',(14.,8.,0.));
#354 = DIRECTION('',(-0.,-0.,-1.));
#355 = DIRECTION('',(1.,0.,0.));
#356 = ADVANCED_FACE('',(#357,#407),#410,.T.);
#357 = FACE_BOUND('',#358,.T.);
#358 = EDGE_LOOP('',(#359,#369,#377,#385,#393,#401));
#359 = ORIENTED_EDGE('',*,*,#360,.T.);
#360 = EDGE_CURVE('',#361,#363,#365,.T.);
#361 = VERTEX_POINT('',#362);
#362 = CARTESIAN_POINT('',(12.249999999928,4.968911086796,0.));
#363 = VERTEX_POINT('',#364);
#364 = CARTESIAN_POINT('',(15.749999999928,4.968911086713,0.));
#365 = LINE('',#366,#367);
#366 = CARTESIAN_POINT('',(12.249999999928,4.968911086796,0.));
#367 = VECTOR('',#368,1.);
#368 = DIRECTION('',(1.,-2.370091E-11,0.));
#369 = ORIENTED_EDGE('',*,*,#370,.T.);
#370 = EDGE_CURVE('',#363,#371,#373,.T.);
#371 = VERTEX_POINT('',#372);
#372 = CARTESIAN_POINT('',(17.5,8.,0.));
#373 = LINE('',#374,#375);
#374 = CARTESIAN_POINT('',(15.749999999928,4.968911086713,0.));
#375 = VECTOR('',#376,1.);
#376 = DIRECTION('',(0.50000000001,0.866025403779,0.));
#377 = ORIENTED_EDGE('',*,*,#378,.T.);
#378 = EDGE_CURVE('',#371,#379,#381,.T.);
#379 = VERTEX_POINT('',#380);
#380 = CARTESIAN_POINT('',(15.75,11.031088913246,0.));
#381 = LINE('',#382,#383);
#382 = CARTESIAN_POINT('',(17.5,8.,0.));
#383 = VECTOR('',#384,1.);
#384 = DIRECTION('',(-0.5,0.866025403784,0.));
#385 = ORIENTED_EDGE('',*,*,#386,.T.);
#386 = EDGE_CURVE('',#379,#387,#389,.T.);
#387 = VERTEX_POINT('',#388);
#388 = CARTESIAN_POINT('',(12.25,11.031088913246,0.));
#389 = LINE('',#390,#391);
#390 = CARTESIAN_POINT('',(15.75,11.031088913246,0.));
#391 = VECTOR('',#392,1.);
#392 = DIRECTION('',(-1.,0.,0.));
#393 = ORIENTED_EDGE('',*,*,#394,.T.);
#394 = EDGE_CURVE('',#387,#395,#397,.T.);
#395 = VERTEX_POINT('',#396);
#396 = CARTESIAN_POINT('',(10.5,8.,0.));
#397 = LINE('',#398,#399);
#398 = CARTESIAN_POINT('',(12.25,11.031088913246,0.));
#399 = VECTOR('',#400,1.);
#400 = DIRECTION('',(-0.5,-0.866025403784,0.));
#401 = ORIENTED_EDGE('',*,*,#402,.T.);
#402 = EDGE_CURVE('',#395,#361,#403,.T.);
#403 = LINE('',#404,#405);
#404 = CARTESIAN_POINT('',(10.5,8.,0.));
#405 = VECTOR('',#406,1.);
#406 = DIRECTION('',(0.49999999999,-0.86602540379,0.));
#407 = FACE_BOUND('',#408,.F.);
#408 = EDGE_LOOP('',(#409));
#409 = ORIENTED_EDGE('',*,*,#345,.T.);
#410 = PLANE('',#411);
#411 = AXIS2_PLACEMENT_3D('',#412,#413,#414);
#412 = CARTESIAN_POINT('',(5.999999999996,8.E-16,0.));
#413 = DIRECTION('',(0.,0.,1.));
#414 = DIRECTION('',(1.,0.,0.));
#415 = ADVANCED_FACE('',(#416),#419,.T.);
#416 = FACE_BOUND('',#417,.T.);
#417 = EDGE_LOOP('',(#418));
#418 = ORIENTED_EDGE('',*,*,#337,.T.);
#419 = PLANE('',#420);
#420 = AXIS2_PLACEMENT_3D('',#421,#422,#423);
#421 = CARTESIAN_POINT('',(6.,1.01E-15,34.));
#422 = DIRECTION('',(0.,0.,1.));
#423 = DIRECTION('',(1.,0.,0.));
#424 = ADVANCED_FACE('',(#425),#450,.T.);
#425 = FACE_BOUND('',#426,.T.);
#426 = EDGE_LOOP('',(#427,#435,#443,#449));
#427 = ORIENTED_EDGE('',*,*,#428,.T.);
#428 = EDGE_CURVE('',#361,#429,#431,.T.);
#429 = VERTEX_POINT('',#430);
#430 = CARTESIAN_POINT('',(12.249999999928,4.968911086796,-3.));
#431 = LINE('',#432,#433);
#432 = CARTESIAN_POINT('',(12.249999999928,4.968911086796,0.));
#433 = VECTOR('',#434,1.);
#434 = DIRECTION('',(-0.,-0.,-1.));
#435 = ORIENTED_EDGE('',*,*,#436,.T.);
#436 = EDGE_CURVE('',#429,#437,#439,.T.);
#437 = VERTEX_POINT('',#438);
#438 = CARTESIAN_POINT('',(15.749999999928,4.968911086713,-3.));
#439 = LINE('',#440,#441);
#440 = CARTESIAN_POINT('',(12.249999999928,4.968911086796,-3.));
#441 = VECTOR('',#442,1.);
#442 = DIRECTION('',(1.,-2.370091E-11,0.));
#443 = ORIENTED_EDGE('',*,*,#444,.F.);
#444 = EDGE_CURVE('',#363,#437,#445,.T.);
#445 = LINE('',#446,#447);
#446 = CARTESIAN_POINT('',(15.749999999928,4.968911086713,0.));
#447 = VECTOR('',#448,1.);
#448 = DIRECTION('',(-0.,-0.,-1.));
#449 = ORIENTED_EDGE('',*,*,#360,.F.);
#450 = PLANE('',#451);
#451 = AXIS2_PLACEMENT_3D('',#452,#453,#454);
#452 = CARTESIAN_POINT('',(12.249999999928,4.968911086796,0.));
#453 = DIRECTION('',(-2.370091E-11,-1.,0.));
#454 = DIRECTION('',(1.,-2.370091E-11,0.));
#455 = ADVANCED_FACE('',(#456),#474,.T.);
#456 = FACE_BOUND('',#457,.T.);
#457 = EDGE_LOOP('',(#458,#459,#467,#473));
#458 = ORIENTED_EDGE('',*,*,#444,.T.);
#459 = ORIENTED_EDGE('',*,*,#460,.T.);
#460 = EDGE_CURVE('',#437,#461,#463,.T.);
#461 = VERTEX_POINT('',#462);
#462 = CARTESIAN_POINT('',(17.5,8.,-3.));
#463 = LINE('',#464,#465);
#464 = CARTESIAN_POINT('',(15.749999999928,4.968911086713,-3.));
#465 = VECTOR('',#466,1.);
#466 = DIRECTION('',(0.50000000001,0.866025403779,0.));
#467 = ORIENTED_EDGE('',*,*,#468,.F.);
#468 = EDGE_CURVE('',#371,#461,#469,.T.);
#469 = LINE('',#470,#471);
#470 = CARTESIAN_POINT('',(17.5,8.,0.));
#471 = VECTOR('',#472,1.);
#472 = DIRECTION('',(-0.,-0.,-1.));
#473 = ORIENTED_EDGE('',*,*,#370,.F.);
#474 = PLANE('',#475);
#475 = AXIS2_PLACEMENT_3D('',#476,#477,#478);
#476 = CARTESIAN_POINT('',(15.749999999928,4.968911086713,0.));
#477 = DIRECTION('',(0.866025403779,-0.50000000001,0.));
#478 = DIRECTION('',(0.50000000001,0.866025403779,0.));
#479 = ADVANCED_FACE('',(#480),#498,.T.);
#480 = FACE_BOUND('',#481,.T.);
#481 = EDGE_LOOP('',(#482,#483,#491,#497));
#482 = ORIENTED_EDGE('',*,*,#468,.T.);
#483 = ORIENTED_EDGE('',*,*,#484,.T.);
#484 = EDGE_CURVE('',#461,#485,#487,.T.);
#485 = VERTEX_POINT('',#486);
#486 = CARTESIAN_POINT('',(15.75,11.031088913246,-3.));
#487 = LINE('',#488,#489);
#488 = CARTESIAN_POINT('',(17.5,8.,-3.));
#489 = VECTOR('',#490,1.);
#490 = DIRECTION('',(-0.5,0.866025403784,0.));
#491 = ORIENTED_EDGE('',*,*,#492,.F.);
#492 = EDGE_CURVE('',#379,#485,#493,.T.);
#493 = LINE('',#494,#495);
#494 = CARTESIAN_POINT('',(15.75,11.031088913246,0.));
#495 = VECTOR('',#496,1.);
#496 = DIRECTION('',(-0.,-0.,-1.));
#497 = ORIENTED_EDGE('',*,*,#378,.F.);
#498 = PLANE('',#499);
#499 = AXIS2_PLACEMENT_3D('',#500,#501,#502);
#500 = CARTESIAN_POINT('',(17.5,8.,0.));
#501 = DIRECTION('',(0.866025403784,0.5,0.));
#502 = DIRECTION('',(-0.5,0.866025403784,0.));
#503 = ADVANCED_FACE('',(#504),#522,.T.);
#504 = FACE_BOUND('',#505,.T.);
#505 = EDGE_LOOP('',(#506,#507,#515,#521));
#506 = ORIENTED_EDGE('',*,*,#492,.T.);
#507 = ORIENTED_EDGE('',*,*,#508,.T.);
#508 = EDGE_CURVE('',#485,#509,#511,.T.);
#509 = VERTEX_POINT('',#510);
#510 = CARTESIAN_POINT('',(12.25,11.031088913246,-3.));
#511 = LINE('',#512,#513);
#512 = CARTESIAN_POINT('',(15.75,11.031088913246,-3.));
#513 = VECTOR('',#514,1.);
#514 = DIRECTION('',(-1.,0.,0.));
#515 = ORIENTED_EDGE('',*,*,#516,.F.);
#516 = EDGE_CURVE('',#387,#509,#517,.T.);
#517 = LINE('',#518,#519);
#518 = CARTESIAN_POINT('',(12.25,11.031088913246,0.));
#519 = VECTOR('',#520,1.);
#520 = DIRECTION('',(-0.,-0.,-1.));
#521 = ORIENTED_EDGE('',*,*,#386,.F.);
#522 = PLANE('',#523);
#523 = AXIS2_PLACEMENT_3D('',#524,#525,#526);
#524 = CARTESIAN_POINT('',(15.75,11.031088913246,0.));
#525 = DIRECTION('',(0.,1.,0.));
#526 = DIRECTION('',(-1.,0.,0.));
#527 = ADVANCED_FACE('',(#528),#546,.T.);
#528 = FACE_BOUND('',#529,.T.);
#529 = EDGE_LOOP('',(#530,#531,#539,#545));
#530 = ORIENTED_EDGE('',*,*,#516,.T.);
#531 = ORIENTED_EDGE('',*,*,#532,.T.);
#532 = EDGE_CURVE('',#509,#533,#535,.T.);
#533 = VERTEX_POINT('',#534);
#534 = CARTESIAN_POINT('',(10.5,8.,-3.));
#535 = LINE('',#536,#537);
#536 = CARTESIAN_POINT('',(12.25,11.031088913246,-3.));
#537 = VECTOR('',#538,1.);
#538 = DIRECTION('',(-0.5,-0.866025403784,0.));
#539 = ORIENTED_EDGE('',*,*,#540,.F.);
#540 = EDGE_CURVE('',#395,#533,#541,.T.);
#541 = LINE('',#542,#543);
#542 = CARTESIAN_POINT('',(10.5,8.,0.));
#543 = VECTOR('',#544,1.);
#544 = DIRECTION('',(-0.,-0.,-1.));
#545 = ORIENTED_EDGE('',*,*,#394,.F.);
#546 = PLANE('',#547);
#547 = AXIS2_PLACEMENT_3D('',#548,#549,#550);
#548 = CARTESIAN_POINT('',(12.25,11.031088913246,0.));
#549 = DIRECTION('',(-0.866025403784,0.5,0.));
#550 = DIRECTION('',(-0.5,-0.866025403784,0.));
#551 = ADVANCED_FACE('',(#552),#563,.T.);
#552 = FACE_BOUND('',#553,.T.);
#553 = EDGE_LOOP('',(#554,#555,#561,#562));
#554 = ORIENTED_EDGE('',*,*,#540,.T.);
#555 = ORIENTED_EDGE('',*,*,#556,.T.);
#556 = EDGE_CURVE('',#533,#429,#557,.T.);
#557 = LINE('',#558,#559);
#558 = CARTESIAN_POINT('',(10.5,8.,-3.));
#559 = VECTOR('',#560,1.);
#560 = DIRECTION('',(0.49999999999,-0.86602540379,0.));
#561 = ORIENTED_EDGE('',*,*,#428,.F.);
#562 = ORIENTED_EDGE('',*,*,#402,.F.);
#563 = PLANE('',#564);
#564 = AXIS2_PLACEMENT_3D('',#565,#566,#567);
#565 = CARTESIAN_POINT('',(10.5,8.,0.));
#566 = DIRECTION('',(-0.86602540379,-0.49999999999,0.));
#567 = DIRECTION('',(0.49999999999,-0.86602540379,0.));
#568 = ADVANCED_FACE('',(#569,#577),#588,.F.);
#569 = FACE_BOUND('',#570,.F.);
#570 = EDGE_LOOP('',(#571,#572,#573,#574,#575,#576));
#571 = ORIENTED_EDGE('',*,*,#436,.T.);
#572 = ORIENTED_EDGE('',*,*,#460,.T.);
#573 = ORIENTED_EDGE('',*,*,#484,.T.);
#574 = ORIENTED_EDGE('',*,*,#508,.T.);
#575 = ORIENTED_EDGE('',*,*,#532,.T.);
#576 = ORIENTED_EDGE('',*,*,#556,.T.);
#577 = FACE_BOUND('',#578,.T.);
#578 = EDGE_LOOP('',(#579));
#579 = ORIENTED_EDGE('',*,*,#580,.T.);
#580 = EDGE_CURVE('',#581,#581,#583,.T.);
#581 = VERTEX_POINT('',#582);
#582 = CARTESIAN_POINT('',(16.55,8.,-3.));
#583 = CIRCLE('',#584,2.55);
#584 = AXIS2_PLACEMENT_3D('',#585,#586,#587);
#585 = CARTESIAN_POINT('',(14.,8.,-3.));
#586 = DIRECTION('',(0.,0.,1.));
#587 = DIRECTION('',(1.,0.,0.));
#588 = PLANE('',#589);
#589 = AXIS2_PLACEMENT_3D('',#590,#591,#592);
#590 = CARTESIAN_POINT('',(5.999999999996,8.E-16,-3.));
#591 = DIRECTION('',(0.,0.,1.));
#592 = DIRECTION('',(1.,0.,0.));
#593 = ADVANCED_FACE('',(#594),#613,.F.);
#594 = FACE_BOUND('',#595,.F.);
#595 = EDGE_LOOP('',(#596,#605,#611,#612));
#596 = ORIENTED_EDGE('',*,*,#597,.F.);
#597 = EDGE_CURVE('',#598,#598,#600,.T.);
#598 = VERTEX_POINT('',#599);
#599 = CARTESIAN_POINT('',(16.55,8.,-2.5));
#600 = CIRCLE('',#601,2.55);
#601 = AXIS2_PLACEMENT_3D('',#602,#603,#604);
#602 = CARTESIAN_POINT('',(14.,8.,-2.5));
#603 = DIRECTION('',(0.,0.,1.));
#604 = DIRECTION('',(1.,0.,0.));
#605 = ORIENTED_EDGE('',*,*,#606,.T.);
#606 = EDGE_CURVE('',#598,#581,#607,.T.);
#607 = LINE('',#608,#609);
#608 = CARTESIAN_POINT('',(16.55,8.,0.));
#609 = VECTOR('',#610,1.);
#610 = DIRECTION('',(-0.,-0.,-1.));
#611 = ORIENTED_EDGE('',*,*,#580,.T.);
#612 = ORIENTED_EDGE('',*,*,#606,.F.);
#613 = CYLINDRICAL_SURFACE('',#614,2.55);
#614 = AXIS2_PLACEMENT_3D('',#615,#616,#617);
#615 = CARTESIAN_POINT('',(14.,8.,0.));
#616 = DIRECTION('',(0.,0.,1.));
#617 = DIRECTION('',(1.,0.,0.));
#618 = ADVANCED_FACE('',(#619),#622,.F.);
#619 = FACE_BOUND('',#620,.F.);
#620 = EDGE_LOOP('',(#621));
#621 = ORIENTED_EDGE('',*,*,#597,.T.);
#622 = PLANE('',#623);
#623 = AXIS2_PLACEMENT_3D('',#624,#625,#626);
#624 = CARTESIAN_POINT('',(6.,1.04E-15,-2.5));
#625 = DIRECTION('',(0.,0.,1.));
#626 = DIRECTION('',(1.,0.,0.));
#627 = MANIFOLD_SOLID_BREP('',#628);
#628 = CLOSED_SHELL('',(#629,#662,#721,#730,#761,#785,#809,#833,#857,
    #874,#899,#924));
#629 = ADVANCED_FACE('',(#630),#657,.T.);
#630 = FACE_BOUND('',#631,.F.);
#631 = EDGE_LOOP('',(#632,#642,#649,#650));
#632 = ORIENTED_EDGE('',*,*,#633,.T.);
#633 = EDGE_CURVE('',#634,#636,#638,.T.);
#634 = VERTEX_POINT('',#635);
#635 = CARTESIAN_POINT('',(16.55,-8.,0.));
#636 = VERTEX_POINT('',#637);
#637 = CARTESIAN_POINT('',(16.55,-8.,34.));
#638 = LINE('',#639,#640);
#639 = CARTESIAN_POINT('',(16.55,-8.,0.));
#640 = VECTOR('',#641,1.);
#641 = DIRECTION('',(0.,0.,1.));
#642 = ORIENTED_EDGE('',*,*,#643,.T.);
#643 = EDGE_CURVE('',#636,#636,#644,.T.);
#644 = CIRCLE('',#645,2.55);
#645 = AXIS2_PLACEMENT_3D('',#646,#647,#648);
#646 = CARTESIAN_POINT('',(14.,-8.,34.));
#647 = DIRECTION('',(0.,0.,1.));
#648 = DIRECTION('',(1.,0.,0.));
#649 = ORIENTED_EDGE('',*,*,#633,.F.);
#650 = ORIENTED_EDGE('',*,*,#651,.F.);
#651 = EDGE_CURVE('',#634,#634,#652,.T.);
#652 = CIRCLE('',#653,2.55);
#653 = AXIS2_PLACEMENT_3D('',#654,#655,#656);
#654 = CARTESIAN_POINT('',(14.,-8.,0.));
#655 = DIRECTION('',(0.,0.,1.));
#656 = DIRECTION('',(1.,0.,0.));
#657 = CYLINDRICAL_SURFACE('',#658,2.55);
#658 = AXIS2_PLACEMENT_3D('',#659,#660,#661);
#659 = CARTESIAN_POINT('',(14.,-8.,0.));
#660 = DIRECTION('',(-0.,-0.,-1.));
#661 = DIRECTION('',(1.,0.,0.));
#662 = ADVANCED_FACE('',(#663,#713),#716,.T.);
#663 = FACE_BOUND('',#664,.T.);
#664 = EDGE_LOOP('',(#665,#675,#683,#691,#699,#707));
#665 = ORIENTED_EDGE('',*,*,#666,.T.);
#666 = EDGE_CURVE('',#667,#669,#671,.T.);
#667 = VERTEX_POINT('',#668);
#668 = CARTESIAN_POINT('',(12.249999999928,-11.0310889132,0.));
#669 = VERTEX_POINT('',#670);
#670 = CARTESIAN_POINT('',(15.749999999928,-11.03108891328,0.));
#671 = LINE('',#672,#673);
#672 = CARTESIAN_POINT('',(12.249999999928,-11.0310889132,0.));
#673 = VECTOR('',#674,1.);
#674 = DIRECTION('',(1.,-2.370066E-11,0.));
#675 = ORIENTED_EDGE('',*,*,#676,.T.);
#676 = EDGE_CURVE('',#669,#677,#679,.T.);
#677 = VERTEX_POINT('',#678);
#678 = CARTESIAN_POINT('',(17.5,-8.,0.));
#679 = LINE('',#680,#681);
#680 = CARTESIAN_POINT('',(15.749999999928,-11.03108891328,0.));
#681 = VECTOR('',#682,1.);
#682 = DIRECTION('',(0.50000000001,0.866025403779,0.));
#683 = ORIENTED_EDGE('',*,*,#684,.T.);
#684 = EDGE_CURVE('',#677,#685,#687,.T.);
#685 = VERTEX_POINT('',#686);
#686 = CARTESIAN_POINT('',(15.75,-4.968911086754,0.));
#687 = LINE('',#688,#689);
#688 = CARTESIAN_POINT('',(17.5,-8.,0.));
#689 = VECTOR('',#690,1.);
#690 = DIRECTION('',(-0.5,0.866025403784,0.));
#691 = ORIENTED_EDGE('',*,*,#692,.T.);
#692 = EDGE_CURVE('',#685,#693,#695,.T.);
#693 = VERTEX_POINT('',#694);
#694 = CARTESIAN_POINT('',(12.25,-4.968911086754,0.));
#695 = LINE('',#696,#697);
#696 = CARTESIAN_POINT('',(15.75,-4.968911086754,0.));
#697 = VECTOR('',#698,1.);
#698 = DIRECTION('',(-1.,0.,0.));
#699 = ORIENTED_EDGE('',*,*,#700,.T.);
#700 = EDGE_CURVE('',#693,#701,#703,.T.);
#701 = VERTEX_POINT('',#702);
#702 = CARTESIAN_POINT('',(10.5,-8.,0.));
#703 = LINE('',#704,#705);
#704 = CARTESIAN_POINT('',(12.25,-4.968911086754,0.));
#705 = VECTOR('',#706,1.);
#706 = DIRECTION('',(-0.5,-0.866025403784,0.));
#707 = ORIENTED_EDGE('',*,*,#708,.T.);
#708 = EDGE_CURVE('',#701,#667,#709,.T.);
#709 = LINE('',#710,#711);
#710 = CARTESIAN_POINT('',(10.5,-8.,0.));
#711 = VECTOR('',#712,1.);
#712 = DIRECTION('',(0.49999999999,-0.86602540379,0.));
#713 = FACE_BOUND('',#714,.F.);
#714 = EDGE_LOOP('',(#715));
#715 = ORIENTED_EDGE('',*,*,#651,.T.);
#716 = PLANE('',#717);
#717 = AXIS2_PLACEMENT_3D('',#718,#719,#720);
#718 = CARTESIAN_POINT('',(5.999999999996,8.E-16,0.));
#719 = DIRECTION('',(0.,0.,1.));
#720 = DIRECTION('',(1.,0.,0.));
#721 = ADVANCED_FACE('',(#722),#725,.T.);
#722 = FACE_BOUND('',#723,.T.);
#723 = EDGE_LOOP('',(#724));
#724 = ORIENTED_EDGE('',*,*,#643,.T.);
#725 = PLANE('',#726);
#726 = AXIS2_PLACEMENT_3D('',#727,#728,#729);
#727 = CARTESIAN_POINT('',(6.,1.01E-15,34.));
#728 = DIRECTION('',(0.,0.,1.));
#729 = DIRECTION('',(1.,0.,0.));
#730 = ADVANCED_FACE('',(#731),#756,.T.);
#731 = FACE_BOUND('',#732,.T.);
#732 = EDGE_LOOP('',(#733,#741,#749,#755));
#733 = ORIENTED_EDGE('',*,*,#734,.T.);
#734 = EDGE_CURVE('',#667,#735,#737,.T.);
#735 = VERTEX_POINT('',#736);
#736 = CARTESIAN_POINT('',(12.249999999928,-11.0310889132,-3.));
#737 = LINE('',#738,#739);
#738 = CARTESIAN_POINT('',(12.249999999928,-11.0310889132,0.));
#739 = VECTOR('',#740,1.);
#740 = DIRECTION('',(-0.,-0.,-1.));
#741 = ORIENTED_EDGE('',*,*,#742,.T.);
#742 = EDGE_CURVE('',#735,#743,#745,.T.);
#743 = VERTEX_POINT('',#744);
#744 = CARTESIAN_POINT('',(15.749999999928,-11.03108891328,-3.));
#745 = LINE('',#746,#747);
#746 = CARTESIAN_POINT('',(12.249999999928,-11.0310889132,-3.));
#747 = VECTOR('',#748,1.);
#748 = DIRECTION('',(1.,-2.370066E-11,0.));
#749 = ORIENTED_EDGE('',*,*,#750,.F.);
#750 = EDGE_CURVE('',#669,#743,#751,.T.);
#751 = LINE('',#752,#753);
#752 = CARTESIAN_POINT('',(15.749999999928,-11.03108891328,0.));
#753 = VECTOR('',#754,1.);
#754 = DIRECTION('',(-0.,-0.,-1.));
#755 = ORIENTED_EDGE('',*,*,#666,.F.);
#756 = PLANE('',#757);
#757 = AXIS2_PLACEMENT_3D('',#758,#759,#760);
#758 = CARTESIAN_POINT('',(12.249999999928,-11.0310889132,0.));
#759 = DIRECTION('',(-2.370066E-11,-1.,0.));
#760 = DIRECTION('',(1.,-2.370066E-11,0.));
#761 = ADVANCED_FACE('',(#762),#780,.T.);
#762 = FACE_BOUND('',#763,.T.);
#763 = EDGE_LOOP('',(#764,#765,#773,#779));
#764 = ORIENTED_EDGE('',*,*,#750,.T.);
#765 = ORIENTED_EDGE('',*,*,#766,.T.);
#766 = EDGE_CURVE('',#743,#767,#769,.T.);
#767 = VERTEX_POINT('',#768);
#768 = CARTESIAN_POINT('',(17.5,-8.,-3.));
#769 = LINE('',#770,#771);
#770 = CARTESIAN_POINT('',(15.749999999928,-11.03108891328,-3.));
#771 = VECTOR('',#772,1.);
#772 = DIRECTION('',(0.50000000001,0.866025403779,0.));
#773 = ORIENTED_EDGE('',*,*,#774,.F.);
#774 = EDGE_CURVE('',#677,#767,#775,.T.);
#775 = LINE('',#776,#777);
#776 = CARTESIAN_POINT('',(17.5,-8.,0.));
#777 = VECTOR('',#778,1.);
#778 = DIRECTION('',(-0.,-0.,-1.));
#779 = ORIENTED_EDGE('',*,*,#676,.F.);
#780 = PLANE('',#781);
#781 = AXIS2_PLACEMENT_3D('',#782,#783,#784);
#782 = CARTESIAN_POINT('',(15.749999999928,-11.03108891328,0.));
#783 = DIRECTION('',(0.866025403779,-0.50000000001,0.));
#784 = DIRECTION('',(0.50000000001,0.866025403779,0.));
#785 = ADVANCED_FACE('',(#786),#804,.T.);
#786 = FACE_BOUND('',#787,.T.);
#787 = EDGE_LOOP('',(#788,#789,#797,#803));
#788 = ORIENTED_EDGE('',*,*,#774,.T.);
#789 = ORIENTED_EDGE('',*,*,#790,.T.);
#790 = EDGE_CURVE('',#767,#791,#793,.T.);
#791 = VERTEX_POINT('',#792);
#792 = CARTESIAN_POINT('',(15.75,-4.968911086754,-3.));
#793 = LINE('',#794,#795);
#794 = CARTESIAN_POINT('',(17.5,-8.,-3.));
#795 = VECTOR('',#796,1.);
#796 = DIRECTION('',(-0.5,0.866025403784,0.));
#797 = ORIENTED_EDGE('',*,*,#798,.F.);
#798 = EDGE_CURVE('',#685,#791,#799,.T.);
#799 = LINE('',#800,#801);
#800 = CARTESIAN_POINT('',(15.75,-4.968911086754,0.));
#801 = VECTOR('',#802,1.);
#802 = DIRECTION('',(-0.,-0.,-1.));
#803 = ORIENTED_EDGE('',*,*,#684,.F.);
#804 = PLANE('',#805);
#805 = AXIS2_PLACEMENT_3D('',#806,#807,#808);
#806 = CARTESIAN_POINT('',(17.5,-8.,0.));
#807 = DIRECTION('',(0.866025403784,0.5,0.));
#808 = DIRECTION('',(-0.5,0.866025403784,0.));
#809 = ADVANCED_FACE('',(#810),#828,.T.);
#810 = FACE_BOUND('',#811,.T.);
#811 = EDGE_LOOP('',(#812,#813,#821,#827));
#812 = ORIENTED_EDGE('',*,*,#798,.T.);
#813 = ORIENTED_EDGE('',*,*,#814,.T.);
#814 = EDGE_CURVE('',#791,#815,#817,.T.);
#815 = VERTEX_POINT('',#816);
#816 = CARTESIAN_POINT('',(12.25,-4.968911086754,-3.));
#817 = LINE('',#818,#819);
#818 = CARTESIAN_POINT('',(15.75,-4.968911086754,-3.));
#819 = VECTOR('',#820,1.);
#820 = DIRECTION('',(-1.,0.,0.));
#821 = ORIENTED_EDGE('',*,*,#822,.F.);
#822 = EDGE_CURVE('',#693,#815,#823,.T.);
#823 = LINE('',#824,#825);
#824 = CARTESIAN_POINT('',(12.25,-4.968911086754,0.));
#825 = VECTOR('',#826,1.);
#826 = DIRECTION('',(-0.,-0.,-1.));
#827 = ORIENTED_EDGE('',*,*,#692,.F.);
#828 = PLANE('',#829);
#829 = AXIS2_PLACEMENT_3D('',#830,#831,#832);
#830 = CARTESIAN_POINT('',(15.75,-4.968911086754,0.));
#831 = DIRECTION('',(0.,1.,0.));
#832 = DIRECTION('',(-1.,0.,0.));
#833 = ADVANCED_FACE('',(#834),#852,.T.);
#834 = FACE_BOUND('',#835,.T.);
#835 = EDGE_LOOP('',(#836,#837,#845,#851));
#836 = ORIENTED_EDGE('',*,*,#822,.T.);
#837 = ORIENTED_EDGE('',*,*,#838,.T.);
#838 = EDGE_CURVE('',#815,#839,#841,.T.);
#839 = VERTEX_POINT('',#840);
#840 = CARTESIAN_POINT('',(10.5,-8.,-3.));
#841 = LINE('',#842,#843);
#842 = CARTESIAN_POINT('',(12.25,-4.968911086754,-3.));
#843 = VECTOR('',#844,1.);
#844 = DIRECTION('',(-0.5,-0.866025403784,0.));
#845 = ORIENTED_EDGE('',*,*,#846,.F.);
#846 = EDGE_CURVE('',#701,#839,#847,.T.);
#847 = LINE('',#848,#849);
#848 = CARTESIAN_POINT('',(10.5,-8.,0.));
#849 = VECTOR('',#850,1.);
#850 = DIRECTION('',(-0.,-0.,-1.));
#851 = ORIENTED_EDGE('',*,*,#700,.F.);
#852 = PLANE('',#853);
#853 = AXIS2_PLACEMENT_3D('',#854,#855,#856);
#854 = CARTESIAN_POINT('',(12.25,-4.968911086754,0.));
#855 = DIRECTION('',(-0.866025403784,0.5,0.));
#856 = DIRECTION('',(-0.5,-0.866025403784,0.));
#857 = ADVANCED_FACE('',(#858),#869,.T.);
#858 = FACE_BOUND('',#859,.T.);
#859 = EDGE_LOOP('',(#860,#861,#867,#868));
#860 = ORIENTED_EDGE('',*,*,#846,.T.);
#861 = ORIENTED_EDGE('',*,*,#862,.T.);
#862 = EDGE_CURVE('',#839,#735,#863,.T.);
#863 = LINE('',#864,#865);
#864 = CARTESIAN_POINT('',(10.5,-8.,-3.));
#865 = VECTOR('',#866,1.);
#866 = DIRECTION('',(0.49999999999,-0.86602540379,0.));
#867 = ORIENTED_EDGE('',*,*,#734,.F.);
#868 = ORIENTED_EDGE('',*,*,#708,.F.);
#869 = PLANE('',#870);
#870 = AXIS2_PLACEMENT_3D('',#871,#872,#873);
#871 = CARTESIAN_POINT('',(10.5,-8.,0.));
#872 = DIRECTION('',(-0.86602540379,-0.49999999999,0.));
#873 = DIRECTION('',(0.49999999999,-0.86602540379,0.));
#874 = ADVANCED_FACE('',(#875,#883),#894,.F.);
#875 = FACE_BOUND('',#876,.F.);
#876 = EDGE_LOOP('',(#877,#878,#879,#880,#881,#882));
#877 = ORIENTED_EDGE('',*,*,#742,.T.);
#878 = ORIENTED_EDGE('',*,*,#766,.T.);
#879 = ORIENTED_EDGE('',*,*,#790,.T.);
#880 = ORIENTED_EDGE('',*,*,#814,.T.);
#881 = ORIENTED_EDGE('',*,*,#838,.T.);
#882 = ORIENTED_EDGE('',*,*,#862,.T.);
#883 = FACE_BOUND('',#884,.T.);
#884 = EDGE_LOOP('',(#885));
#885 = ORIENTED_EDGE('',*,*,#886,.T.);
#886 = EDGE_CURVE('',#887,#887,#889,.T.);
#887 = VERTEX_POINT('',#888);
#888 = CARTESIAN_POINT('',(16.55,-8.,-3.));
#889 = CIRCLE('',#890,2.55);
#890 = AXIS2_PLACEMENT_3D('',#891,#892,#893);
#891 = CARTESIAN_POINT('',(14.,-8.,-3.));
#892 = DIRECTION('',(0.,0.,1.));
#893 = DIRECTION('',(1.,0.,0.));
#894 = PLANE('',#895);
#895 = AXIS2_PLACEMENT_3D('',#896,#897,#898);
#896 = CARTESIAN_POINT('',(5.999999999996,8.E-16,-3.));
#897 = DIRECTION('',(0.,0.,1.));
#898 = DIRECTION('',(1.,0.,0.));
#899 = ADVANCED_FACE('',(#900),#919,.F.);
#900 = FACE_BOUND('',#901,.F.);
#901 = EDGE_LOOP('',(#902,#911,#917,#918));
#902 = ORIENTED_EDGE('',*,*,#903,.F.);
#903 = EDGE_CURVE('',#904,#904,#906,.T.);
#904 = VERTEX_POINT('',#905);
#905 = CARTESIAN_POINT('',(16.55,-8.,-2.5));
#906 = CIRCLE('',#907,2.55);
#907 = AXIS2_PLACEMENT_3D('',#908,#909,#910);
#908 = CARTESIAN_POINT('',(14.,-8.,-2.5));
#909 = DIRECTION('',(0.,0.,1.));
#910 = DIRECTION('',(1.,0.,0.));
#911 = ORIENTED_EDGE('',*,*,#912,.T.);
#912 = EDGE_CURVE('',#904,#887,#913,.T.);
#913 = LINE('',#914,#915);
#914 = CARTESIAN_POINT('',(16.55,-8.,0.));
#915 = VECTOR('',#916,1.);
#916 = DIRECTION('',(-0.,-0.,-1.));
#917 = ORIENTED_EDGE('',*,*,#886,.T.);
#918 = ORIENTED_EDGE('',*,*,#912,.F.);
#919 = CYLINDRICAL_SURFACE('',#920,2.55);
#920 = AXIS2_PLACEMENT_3D('',#921,#922,#923);
#921 = CARTESIAN_POINT('',(14.,-8.,0.));
#922 = DIRECTION('',(0.,0.,1.));
#923 = DIRECTION('',(1.,0.,0.));
#924 = ADVANCED_FACE('',(#925),#928,.F.);
#925 = FACE_BOUND('',#926,.F.);
#926 = EDGE_LOOP('',(#927));
#927 = ORIENTED_EDGE('',*,*,#903,.T.);
#928 = PLANE('',#929);
#929 = AXIS2_PLACEMENT_3D('',#930,#931,#932);
#930 = CARTESIAN_POINT('',(6.,1.04E-15,-2.5));
#931 = DIRECTION('',(0.,0.,1.));
#932 = DIRECTION('',(1.,0.,0.));
#933 = MANIFOLD_SOLID_BREP('',#934);
#934 = CLOSED_SHELL('',(#935,#968,#1027,#1036,#1067,#1091,#1115,#1139,
    #1163,#1180,#1205,#1230));
#935 = ADVANCED_FACE('',(#936),#963,.T.);
#936 = FACE_BOUND('',#937,.F.);
#937 = EDGE_LOOP('',(#938,#948,#955,#956));
#938 = ORIENTED_EDGE('',*,*,#939,.T.);
#939 = EDGE_CURVE('',#940,#942,#944,.T.);
#940 = VERTEX_POINT('',#941);
#941 = CARTESIAN_POINT('',(0.55,-8.,0.));
#942 = VERTEX_POINT('',#943);
#943 = CARTESIAN_POINT('',(0.55,-8.,34.));
#944 = LINE('',#945,#946);
#945 = CARTESIAN_POINT('',(0.55,-8.,0.));
#946 = VECTOR('',#947,1.);
#947 = DIRECTION('',(0.,0.,1.));
#948 = ORIENTED_EDGE('',*,*,#949,.T.);
#949 = EDGE_CURVE('',#942,#942,#950,.T.);
#950 = CIRCLE('',#951,2.55);
#951 = AXIS2_PLACEMENT_3D('',#952,#953,#954);
#952 = CARTESIAN_POINT('',(-2.,-8.,34.));
#953 = DIRECTION('',(0.,0.,1.));
#954 = DIRECTION('',(1.,0.,0.));
#955 = ORIENTED_EDGE('',*,*,#939,.F.);
#956 = ORIENTED_EDGE('',*,*,#957,.F.);
#957 = EDGE_CURVE('',#940,#940,#958,.T.);
#958 = CIRCLE('',#959,2.55);
#959 = AXIS2_PLACEMENT_3D('',#960,#961,#962);
#960 = CARTESIAN_POINT('',(-2.,-8.,0.));
#961 = DIRECTION('',(0.,0.,1.));
#962 = DIRECTION('',(1.,0.,0.));
#963 = CYLINDRICAL_SURFACE('',#964,2.55);
#964 = AXIS2_PLACEMENT_3D('',#965,#966,#967);
#965 = CARTESIAN_POINT('',(-2.,-8.,0.));
#966 = DIRECTION('',(-0.,-0.,-1.));
#967 = DIRECTION('',(1.,0.,0.));
#968 = ADVANCED_FACE('',(#969,#1019),#1022,.T.);
#969 = FACE_BOUND('',#970,.T.);
#970 = EDGE_LOOP('',(#971,#981,#989,#997,#1005,#1013));
#971 = ORIENTED_EDGE('',*,*,#972,.T.);
#972 = EDGE_CURVE('',#973,#975,#977,.T.);
#973 = VERTEX_POINT('',#974);
#974 = CARTESIAN_POINT('',(-3.750000000072,-11.0310889132,0.));
#975 = VERTEX_POINT('',#976);
#976 = CARTESIAN_POINT('',(-0.250000000072,-11.03108891328,0.));
#977 = LINE('',#978,#979);
#978 = CARTESIAN_POINT('',(-3.750000000072,-11.0310889132,0.));
#979 = VECTOR('',#980,1.);
#980 = DIRECTION('',(1.,-2.370066E-11,0.));
#981 = ORIENTED_EDGE('',*,*,#982,.T.);
#982 = EDGE_CURVE('',#975,#983,#985,.T.);
#983 = VERTEX_POINT('',#984);
#984 = CARTESIAN_POINT('',(1.5,-8.,0.));
#985 = LINE('',#986,#987);
#986 = CARTESIAN_POINT('',(-0.250000000072,-11.03108891328,0.));
#987 = VECTOR('',#988,1.);
#988 = DIRECTION('',(0.50000000001,0.866025403779,0.));
#989 = ORIENTED_EDGE('',*,*,#990,.T.);
#990 = EDGE_CURVE('',#983,#991,#993,.T.);
#991 = VERTEX_POINT('',#992);
#992 = CARTESIAN_POINT('',(-0.25,-4.968911086754,0.));
#993 = LINE('',#994,#995);
#994 = CARTESIAN_POINT('',(1.5,-8.,0.));
#995 = VECTOR('',#996,1.);
#996 = DIRECTION('',(-0.5,0.866025403784,0.));
#997 = ORIENTED_EDGE('',*,*,#998,.T.);
#998 = EDGE_CURVE('',#991,#999,#1001,.T.);
#999 = VERTEX_POINT('',#1000);
#1000 = CARTESIAN_POINT('',(-3.75,-4.968911086754,0.));
#1001 = LINE('',#1002,#1003);
#1002 = CARTESIAN_POINT('',(-0.25,-4.968911086754,0.));
#1003 = VECTOR('',#1004,1.);
#1004 = DIRECTION('',(-1.,-2.5E-16,0.));
#1005 = ORIENTED_EDGE('',*,*,#1006,.T.);
#1006 = EDGE_CURVE('',#999,#1007,#1009,.T.);
#1007 = VERTEX_POINT('',#1008);
#1008 = CARTESIAN_POINT('',(-5.5,-8.,0.));
#1009 = LINE('',#1010,#1011);
#1010 = CARTESIAN_POINT('',(-3.75,-4.968911086754,0.));
#1011 = VECTOR('',#1012,1.);
#1012 = DIRECTION('',(-0.5,-0.866025403784,0.));
#1013 = ORIENTED_EDGE('',*,*,#1014,.T.);
#1014 = EDGE_CURVE('',#1007,#973,#1015,.T.);
#1015 = LINE('',#1016,#1017);
#1016 = CARTESIAN_POINT('',(-5.5,-8.,0.));
#1017 = VECTOR('',#1018,1.);
#1018 = DIRECTION('',(0.49999999999,-0.86602540379,0.));
#1019 = FACE_BOUND('',#1020,.F.);
#1020 = EDGE_LOOP('',(#1021));
#1021 = ORIENTED_EDGE('',*,*,#957,.T.);
#1022 = PLANE('',#1023);
#1023 = AXIS2_PLACEMENT_3D('',#1024,#1025,#1026);
#1024 = CARTESIAN_POINT('',(5.999999999996,8.E-16,0.));
#1025 = DIRECTION('',(0.,0.,1.));
#1026 = DIRECTION('',(1.,0.,0.));
#1027 = ADVANCED_FACE('',(#1028),#1031,.T.);
#1028 = FACE_BOUND('',#1029,.T.);
#1029 = EDGE_LOOP('',(#1030));
#1030 = ORIENTED_EDGE('',*,*,#949,.T.);
#1031 = PLANE('',#1032);
#1032 = AXIS2_PLACEMENT_3D('',#1033,#1034,#1035);
#1033 = CARTESIAN_POINT('',(6.,1.01E-15,34.));
#1034 = DIRECTION('',(0.,0.,1.));
#1035 = DIRECTION('',(1.,0.,0.));
#1036 = ADVANCED_FACE('',(#1037),#1062,.T.);
#1037 = FACE_BOUND('',#1038,.T.);
#1038 = EDGE_LOOP('',(#1039,#1047,#1055,#1061));
#1039 = ORIENTED_EDGE('',*,*,#1040,.T.);
#1040 = EDGE_CURVE('',#973,#1041,#1043,.T.);
#1041 = VERTEX_POINT('',#1042);
#1042 = CARTESIAN_POINT('',(-3.750000000072,-11.0310889132,-3.));
#1043 = LINE('',#1044,#1045);
#1044 = CARTESIAN_POINT('',(-3.750000000072,-11.0310889132,0.));
#1045 = VECTOR('',#1046,1.);
#1046 = DIRECTION('',(-0.,-0.,-1.));
#1047 = ORIENTED_EDGE('',*,*,#1048,.T.);
#1048 = EDGE_CURVE('',#1041,#1049,#1051,.T.);
#1049 = VERTEX_POINT('',#1050);
#1050 = CARTESIAN_POINT('',(-0.250000000072,-11.03108891328,-3.));
#1051 = LINE('',#1052,#1053);
#1052 = CARTESIAN_POINT('',(-3.750000000072,-11.0310889132,-3.));
#1053 = VECTOR('',#1054,1.);
#1054 = DIRECTION('',(1.,-2.370066E-11,0.));
#1055 = ORIENTED_EDGE('',*,*,#1056,.F.);
#1056 = EDGE_CURVE('',#975,#1049,#1057,.T.);
#1057 = LINE('',#1058,#1059);
#1058 = CARTESIAN_POINT('',(-0.250000000072,-11.03108891328,0.));
#1059 = VECTOR('',#1060,1.);
#1060 = DIRECTION('',(-0.,-0.,-1.));
#1061 = ORIENTED_EDGE('',*,*,#972,.F.);
#1062 = PLANE('',#1063);
#1063 = AXIS2_PLACEMENT_3D('',#1064,#1065,#1066);
#1064 = CARTESIAN_POINT('',(-3.750000000072,-11.0310889132,0.));
#1065 = DIRECTION('',(-2.370066E-11,-1.,0.));
#1066 = DIRECTION('',(1.,-2.370066E-11,0.));
#1067 = ADVANCED_FACE('',(#1068),#1086,.T.);
#1068 = FACE_BOUND('',#1069,.T.);
#1069 = EDGE_LOOP('',(#1070,#1071,#1079,#1085));
#1070 = ORIENTED_EDGE('',*,*,#1056,.T.);
#1071 = ORIENTED_EDGE('',*,*,#1072,.T.);
#1072 = EDGE_CURVE('',#1049,#1073,#1075,.T.);
#1073 = VERTEX_POINT('',#1074);
#1074 = CARTESIAN_POINT('',(1.5,-8.,-3.));
#1075 = LINE('',#1076,#1077);
#1076 = CARTESIAN_POINT('',(-0.250000000072,-11.03108891328,-3.));
#1077 = VECTOR('',#1078,1.);
#1078 = DIRECTION('',(0.50000000001,0.866025403779,0.));
#1079 = ORIENTED_EDGE('',*,*,#1080,.F.);
#1080 = EDGE_CURVE('',#983,#1073,#1081,.T.);
#1081 = LINE('',#1082,#1083);
#1082 = CARTESIAN_POINT('',(1.5,-8.,0.));
#1083 = VECTOR('',#1084,1.);
#1084 = DIRECTION('',(-0.,-0.,-1.));
#1085 = ORIENTED_EDGE('',*,*,#982,.F.);
#1086 = PLANE('',#1087);
#1087 = AXIS2_PLACEMENT_3D('',#1088,#1089,#1090);
#1088 = CARTESIAN_POINT('',(-0.250000000072,-11.03108891328,0.));
#1089 = DIRECTION('',(0.866025403779,-0.50000000001,0.));
#1090 = DIRECTION('',(0.50000000001,0.866025403779,0.));
#1091 = ADVANCED_FACE('',(#1092),#1110,.T.);
#1092 = FACE_BOUND('',#1093,.T.);
#1093 = EDGE_LOOP('',(#1094,#1095,#1103,#1109));
#1094 = ORIENTED_EDGE('',*,*,#1080,.T.);
#1095 = ORIENTED_EDGE('',*,*,#1096,.T.);
#1096 = EDGE_CURVE('',#1073,#1097,#1099,.T.);
#1097 = VERTEX_POINT('',#1098);
#1098 = CARTESIAN_POINT('',(-0.25,-4.968911086754,-3.));
#1099 = LINE('',#1100,#1101);
#1100 = CARTESIAN_POINT('',(1.5,-8.,-3.));
#1101 = VECTOR('',#1102,1.);
#1102 = DIRECTION('',(-0.5,0.866025403784,0.));
#1103 = ORIENTED_EDGE('',*,*,#1104,.F.);
#1104 = EDGE_CURVE('',#991,#1097,#1105,.T.);
#1105 = LINE('',#1106,#1107);
#1106 = CARTESIAN_POINT('',(-0.25,-4.968911086754,0.));
#1107 = VECTOR('',#1108,1.);
#1108 = DIRECTION('',(-0.,-0.,-1.));
#1109 = ORIENTED_EDGE('',*,*,#990,.F.);
#1110 = PLANE('',#1111);
#1111 = AXIS2_PLACEMENT_3D('',#1112,#1113,#1114);
#1112 = CARTESIAN_POINT('',(1.5,-8.,0.));
#1113 = DIRECTION('',(0.866025403784,0.5,0.));
#1114 = DIRECTION('',(-0.5,0.866025403784,0.));
#1115 = ADVANCED_FACE('',(#1116),#1134,.T.);
#1116 = FACE_BOUND('',#1117,.T.);
#1117 = EDGE_LOOP('',(#1118,#1119,#1127,#1133));
#1118 = ORIENTED_EDGE('',*,*,#1104,.T.);
#1119 = ORIENTED_EDGE('',*,*,#1120,.T.);
#1120 = EDGE_CURVE('',#1097,#1121,#1123,.T.);
#1121 = VERTEX_POINT('',#1122);
#1122 = CARTESIAN_POINT('',(-3.75,-4.968911086754,-3.));
#1123 = LINE('',#1124,#1125);
#1124 = CARTESIAN_POINT('',(-0.25,-4.968911086754,-3.));
#1125 = VECTOR('',#1126,1.);
#1126 = DIRECTION('',(-1.,-2.5E-16,0.));
#1127 = ORIENTED_EDGE('',*,*,#1128,.F.);
#1128 = EDGE_CURVE('',#999,#1121,#1129,.T.);
#1129 = LINE('',#1130,#1131);
#1130 = CARTESIAN_POINT('',(-3.75,-4.968911086754,0.));
#1131 = VECTOR('',#1132,1.);
#1132 = DIRECTION('',(-0.,-0.,-1.));
#1133 = ORIENTED_EDGE('',*,*,#998,.F.);
#1134 = PLANE('',#1135);
#1135 = AXIS2_PLACEMENT_3D('',#1136,#1137,#1138);
#1136 = CARTESIAN_POINT('',(-0.25,-4.968911086754,0.));
#1137 = DIRECTION('',(-2.5E-16,1.,0.));
#1138 = DIRECTION('',(-1.,-2.5E-16,0.));
#1139 = ADVANCED_FACE('',(#1140),#1158,.T.);
#1140 = FACE_BOUND('',#1141,.T.);
#1141 = EDGE_LOOP('',(#1142,#1143,#1151,#1157));
#1142 = ORIENTED_EDGE('',*,*,#1128,.T.);
#1143 = ORIENTED_EDGE('',*,*,#1144,.T.);
#1144 = EDGE_CURVE('',#1121,#1145,#1147,.T.);
#1145 = VERTEX_POINT('',#1146);
#1146 = CARTESIAN_POINT('',(-5.5,-8.,-3.));
#1147 = LINE('',#1148,#1149);
#1148 = CARTESIAN_POINT('',(-3.75,-4.968911086754,-3.));
#1149 = VECTOR('',#1150,1.);
#1150 = DIRECTION('',(-0.5,-0.866025403784,0.));
#1151 = ORIENTED_EDGE('',*,*,#1152,.F.);
#1152 = EDGE_CURVE('',#1007,#1145,#1153,.T.);
#1153 = LINE('',#1154,#1155);
#1154 = CARTESIAN_POINT('',(-5.5,-8.,0.));
#1155 = VECTOR('',#1156,1.);
#1156 = DIRECTION('',(-0.,-0.,-1.));
#1157 = ORIENTED_EDGE('',*,*,#1006,.F.);
#1158 = PLANE('',#1159);
#1159 = AXIS2_PLACEMENT_3D('',#1160,#1161,#1162);
#1160 = CARTESIAN_POINT('',(-3.75,-4.968911086754,0.));
#1161 = DIRECTION('',(-0.866025403784,0.5,0.));
#1162 = DIRECTION('',(-0.5,-0.866025403784,0.));
#1163 = ADVANCED_FACE('',(#1164),#1175,.T.);
#1164 = FACE_BOUND('',#1165,.T.);
#1165 = EDGE_LOOP('',(#1166,#1167,#1173,#1174));
#1166 = ORIENTED_EDGE('',*,*,#1152,.T.);
#1167 = ORIENTED_EDGE('',*,*,#1168,.T.);
#1168 = EDGE_CURVE('',#1145,#1041,#1169,.T.);
#1169 = LINE('',#1170,#1171);
#1170 = CARTESIAN_POINT('',(-5.5,-8.,-3.));
#1171 = VECTOR('',#1172,1.);
#1172 = DIRECTION('',(0.49999999999,-0.86602540379,0.));
#1173 = ORIENTED_EDGE('',*,*,#1040,.F.);
#1174 = ORIENTED_EDGE('',*,*,#1014,.F.);
#1175 = PLANE('',#1176);
#1176 = AXIS2_PLACEMENT_3D('',#1177,#1178,#1179);
#1177 = CARTESIAN_POINT('',(-5.5,-8.,0.));
#1178 = DIRECTION('',(-0.86602540379,-0.49999999999,0.));
#1179 = DIRECTION('',(0.49999999999,-0.86602540379,0.));
#1180 = ADVANCED_FACE('',(#1181,#1189),#1200,.F.);
#1181 = FACE_BOUND('',#1182,.F.);
#1182 = EDGE_LOOP('',(#1183,#1184,#1185,#1186,#1187,#1188));
#1183 = ORIENTED_EDGE('',*,*,#1048,.T.);
#1184 = ORIENTED_EDGE('',*,*,#1072,.T.);
#1185 = ORIENTED_EDGE('',*,*,#1096,.T.);
#1186 = ORIENTED_EDGE('',*,*,#1120,.T.);
#1187 = ORIENTED_EDGE('',*,*,#1144,.T.);
#1188 = ORIENTED_EDGE('',*,*,#1168,.T.);
#1189 = FACE_BOUND('',#1190,.T.);
#1190 = EDGE_LOOP('',(#1191));
#1191 = ORIENTED_EDGE('',*,*,#1192,.T.);
#1192 = EDGE_CURVE('',#1193,#1193,#1195,.T.);
#1193 = VERTEX_POINT('',#1194);
#1194 = CARTESIAN_POINT('',(0.55,-8.,-3.));
#1195 = CIRCLE('',#1196,2.55);
#1196 = AXIS2_PLACEMENT_3D('',#1197,#1198,#1199);
#1197 = CARTESIAN_POINT('',(-2.,-8.,-3.));
#1198 = DIRECTION('',(0.,0.,1.));
#1199 = DIRECTION('',(1.,0.,0.));
#1200 = PLANE('',#1201);
#1201 = AXIS2_PLACEMENT_3D('',#1202,#1203,#1204);
#1202 = CARTESIAN_POINT('',(5.999999999996,8.E-16,-3.));
#1203 = DIRECTION('',(0.,0.,1.));
#1204 = DIRECTION('',(1.,0.,0.));
#1205 = ADVANCED_FACE('',(#1206),#1225,.F.);
#1206 = FACE_BOUND('',#1207,.F.);
#1207 = EDGE_LOOP('',(#1208,#1217,#1223,#1224));
#1208 = ORIENTED_EDGE('',*,*,#1209,.F.);
#1209 = EDGE_CURVE('',#1210,#1210,#1212,.T.);
#1210 = VERTEX_POINT('',#1211);
#1211 = CARTESIAN_POINT('',(0.55,-8.,-2.5));
#1212 = CIRCLE('',#1213,2.55);
#1213 = AXIS2_PLACEMENT_3D('',#1214,#1215,#1216);
#1214 = CARTESIAN_POINT('',(-2.,-8.,-2.5));
#1215 = DIRECTION('',(0.,0.,1.));
#1216 = DIRECTION('',(1.,0.,0.));
#1217 = ORIENTED_EDGE('',*,*,#1218,.T.);
#1218 = EDGE_CURVE('',#1210,#1193,#1219,.T.);
#1219 = LINE('',#1220,#1221);
#1220 = CARTESIAN_POINT('',(0.55,-8.,0.));
#1221 = VECTOR('',#1222,1.);
#1222 = DIRECTION('',(-0.,-0.,-1.));
#1223 = ORIENTED_EDGE('',*,*,#1192,.T.);
#1224 = ORIENTED_EDGE('',*,*,#1218,.F.);
#1225 = CYLINDRICAL_SURFACE('',#1226,2.55);
#1226 = AXIS2_PLACEMENT_3D('',#1227,#1228,#1229);
#1227 = CARTESIAN_POINT('',(-2.,-8.,0.));
#1228 = DIRECTION('',(0.,0.,1.));
#1229 = DIRECTION('',(1.,0.,0.));
#1230 = ADVANCED_FACE('',(#1231),#1234,.F.);
#1231 = FACE_BOUND('',#1232,.F.);
#1232 = EDGE_LOOP('',(#1233));
#1233 = ORIENTED_EDGE('',*,*,#1209,.T.);
#1234 = PLANE('',#1235);
#1235 = AXIS2_PLACEMENT_3D('',#1236,#1237,#1238);
#1236 = CARTESIAN_POINT('',(6.,1.04E-15,-2.5));
#1237 = DIRECTION('',(0.,0.,1.));
#1238 = DIRECTION('',(1.,0.,0.));
#1239 = ( GEOMETRIC_REPRESENTATION_CONTEXT(3) 
GLOBAL_UNCERTAINTY_ASSIGNED_CONTEXT((#1243)) 
GLOBAL_UNIT_ASSIGNED_CONTEXT((#1240,#1241,#1242)) REPRESENTATION_CONTEXT
('Context #1','3D Context with UNIT and UNCERTAINTY') );
#1240 = ( LENGTH_UNIT() NAMED_UNIT(*) SI_UNIT(.MILLI.,.METRE.) );
#1241 = ( NAMED_UNIT(*) PLANE_ANGLE_UNIT() SI_UNIT($,.RADIAN.) );
#1242 = ( NAMED_UNIT(*) SI_UNIT($,.STERADIAN.) SOLID_ANGLE_UNIT() );
#1243 = UNCERTAINTY_MEASURE_WITH_UNIT(LENGTH_MEASURE(1.E-07),#1240,
  'distance_accuracy_value','confusion accuracy');
#1244 = PRODUCT_RELATED_PRODUCT_CATEGORY('part',$,(#7));
#1245 = MECHANICAL_DESIGN_GEOMETRIC_PRESENTATION_REPRESENTATION('',(
    #1246,#1257,#1266,#1275),#1239);
#1246 = STYLED_ITEM('color',(#1247),#15);
#1247 = PRESENTATION_STYLE_ASSIGNMENT((#1248,#1254));
#1248 = SURFACE_STYLE_USAGE(.BOTH.,#1249);
#1249 = SURFACE_SIDE_STYLE('',(#1250));
#1250 = SURFACE_STYLE_FILL_AREA(#1251);
#1251 = FILL_AREA_STYLE('',(#1252));
#1252 = FILL_AREA_STYLE_COLOUR('',#1253);
#1253 = COLOUR_RGB('',0.447058818107,0.474509808674,0.501960817233);
#1254 = CURVE_STYLE('',#1255,POSITIVE_LENGTH_MEASURE(0.1),#1256);
#1255 = DRAUGHTING_PRE_DEFINED_CURVE_FONT('continuous');
#1256 = COLOUR_RGB('',9.803921802644E-02,9.803921802644E-02,
  9.803921802644E-02);
#1257 = STYLED_ITEM('color',(#1258),#321);
#1258 = PRESENTATION_STYLE_ASSIGNMENT((#1259,#1264));
#1259 = SURFACE_STYLE_USAGE(.BOTH.,#1260);
#1260 = SURFACE_SIDE_STYLE('',(#1261));
#1261 = SURFACE_STYLE_FILL_AREA(#1262);
#1262 = FILL_AREA_STYLE('',(#1263));
#1263 = FILL_AREA_STYLE_COLOUR('',#1253);
#1264 = CURVE_STYLE('',#1265,POSITIVE_LENGTH_MEASURE(0.1),#1256);
#1265 = DRAUGHTING_PRE_DEFINED_CURVE_FONT('continuous');
#1266 = STYLED_ITEM('color',(#1267),#627);
#1267 = PRESENTATION_STYLE_ASSIGNMENT((#1268,#1273));
#1268 = SURFACE_STYLE_USAGE(.BOTH.,#1269);
#1269 = SURFACE_SIDE_STYLE('',(#1270));
#1270 = SURFACE_STYLE_FILL_AREA(#1271);
#1271 = FILL_AREA_STYLE('',(#1272));
#1272 = FILL_AREA_STYLE_COLOUR('',#1253);
#1273 = CURVE_STYLE('',#1274,POSITIVE_LENGTH_MEASURE(0.1),#1256);
#1274 = DRAUGHTING_PRE_DEFINED_CURVE_FONT('continuous');
#1275 = STYLED_ITEM('color',(#1276),#933);
#1276 = PRESENTATION_STYLE_ASSIGNMENT((#1277,#1282));
#1277 = SURFACE_STYLE_USAGE(.BOTH.,#1278);
#1278 = SURFACE_SIDE_STYLE('',(#1279));
#1279 = SURFACE_STYLE_FILL_AREA(#1280);
#1280 = FILL_AREA_STYLE('',(#1281));
#1281 = FILL_AREA_STYLE_COLOUR('',#1253);
#1282 = CURVE_STYLE('',#1283,POSITIVE_LENGTH_MEASURE(0.1),#1256);
#1283 = DRAUGHTING_PRE_DEFINED_CURVE_FONT('continuous');
ENDSEC;
END-ISO-10303-21;
